<svg id="Layer_1" enable-background="new 0 0 64 64" height="512" viewBox="0 0 64 64" width="512" xmlns="http://www.w3.org/2000/svg"><g><path d="m56 36v-13c0-2.757-2.243-5-5-5h-22c-2.757 0-5 2.243-5 5v13z" fill="#ffdaaa"/><g><g><circle cx="18" cy="49" fill="#ffdaaa" r="2"/><path d="m18 52c-1.654 0-3-1.346-3-3s1.346-3 3-3 3 1.346 3 3-1.346 3-3 3zm0-4c-.551 0-1 .448-1 1s.449 1 1 1 1-.448 1-1-.449-1-1-1z" fill="#5f4d37"/></g><g><g><ellipse cx="40" cy="7" fill="#ff9478" rx="4" ry="7"/></g><path d="m26 44c-1.399 0-2.688.283-3.77.77.487-1.082.77-2.371.77-3.77 0-3.925-2.196-7-5-7s-5 3.075-5 7c0 1.399.283 2.688.77 3.77-1.083-.487-2.371-.77-3.77-.77-3.925 0-7 2.196-7 5s3.075 5 7 5c1.399 0 2.687-.283 3.77-.77-.487 1.082-.77 2.371-.77 3.77 0 3.925 2.196 7 5 7s5-3.075 5-7c0-1.399-.283-2.688-.77-3.77 1.082.487 2.371.77 3.77.77 3.925 0 7-2.196 7-5s-3.075-5-7-5z" fill="#ffdaaa"/><circle cx="18" cy="49" fill="#ff9478" r="3"/><g><path d="m45 24h-17c-.552 0-1-.448-1-1s.448-1 1-1h17c.552 0 1 .448 1 1s-.448 1-1 1z" fill="#ff9478"/></g></g></g><g><path d="m60.747 36.335c-.19-.213-.462-.335-.747-.335h-38.471c.912 1.262 1.471 3.022 1.471 5 0 1.399-.283 2.688-.77 3.77 1.082-.487 2.371-.77 3.77-.77 3.925 0 7 2.196 7 5s-3.075 5-7 5c-1.399 0-2.688-.283-3.77-.77.487 1.082.77 2.371.77 3.77 0 1.729-.427 3.291-1.143 4.5.345 1.427 1.651 2.5 3.143 2.5h30c1.621 0 3.036-1.261 3.223-2.872l2.771-24.014c.032-.283-.058-.566-.247-.779z" fill="#806749"/></g><path d="m41 18v-10c0-.552-.448-1-1-1s-1 .448-1 1v10z" fill="#5f4d37"/></g></svg>